<svg viewBox="0 0 282 117" xmlns="http://www.w3.org/2000/svg" width="260" height="80">
<rect width="100%" height="100%" fill="#ffffff"/>
<path stroke="#000000" stroke-width="1" d="M11.50 91L11.50 10M14.50 91L14.50 10M21.50 91L21.50 10M23.50 91L23.50 10M26.50 91L26.50 10M27.50 91L27.50 10M30.50 91L30.50 10M33.50 91L33.50 10M37.50 91L37.50 10M38.50 91L38.50 10M40.50 91L40.50 10M45.50 91L45.50 10M48.50 91L48.50 10M50.50 91L50.50 10M52.50 91L52.50 10M55.50 91L55.50 10M57.50 91L57.50 10M61.50 91L61.50 10M67.50 91L67.50 10M68.50 91L68.50 10M71.50 91L71.50 10M72.50 91L72.50 10M75.50 91L75.50 10M78.50 91L78.50 10M85.50 91L85.50 10M86.50 91L86.50 10M89.50 91L89.50 10M91.50 91L91.50 10M94.50 91L94.50 10M95.50 91L95.50 10M98.50 91L98.50 10M101.50 91L101.50 10M106.50 91L106.50 10M108.50 91L108.50 10M109.50 91L109.50 10M113.50 91L113.50 10M116.50 91L116.50 10M118.50 91L118.50 10M120.50 91L120.50 10M123.50 91L123.50 10M128.50 91L128.50 10M129.50 91L129.50 10M135.50 91L135.50 10M136.50 91L136.50 10M139.50 91L139.50 10M140.50 91L140.50 10M143.50 91L143.50 10M146.50 91L146.50 10M150.50 91L150.50 10M152.50 91L152.50 10M154.50 91L154.50 10M159.50 91L159.50 10M164.50 91L164.50 10M169.50 91L169.50 10M170.50 91L170.50 10M173.50 91L173.50 10M174.50 91L174.50 10M177.50 91L177.50 10M180.50 91L180.50 10M181.50 91L181.50 10M183.50 91L183.50 10M191.50 91L191.50 10M193.50 91L193.50 10M196.50 91L196.50 10M197.50 91L197.50 10M200.50 91L200.50 10M203.50 91L203.50 10M207.50 91L207.50 10M208.50 91L208.50 10M211.50 91L211.50 10M215.50 91L215.50 10M218.50 91L218.50 10M220.50 91L220.50 10M222.50 91L222.50 10M225.50 91L225.50 10M230.50 91L230.50 10M231.50 91L231.50 10M237.50 91L237.50 10M238.50 91L238.50 10M241.50 91L241.50 10M242.50 91L242.50 10M245.50 91L245.50 10M248.50 91L248.50 10M252.50 91L252.50 10M256.50 91L256.50 10M259.50 91L259.50 10M261.50 91L261.50 10M264.50 91L264.50 10M271.50 91L271.50 10"/>
<path stroke="#000000" stroke-width="2" d="M16.50 91L16.50 10M19.50 91L19.50 10M35.50 91L35.50 10M43.50 91L43.50 10M59.50 91L59.50 10M64.50 91L64.50 10M80.50 91L80.50 10M83.50 91L83.50 10M103.50 91L103.50 10M111.50 91L111.50 10M125.50 91L125.50 10M131.50 91L131.50 10M148.50 91L148.50 10M157.50 91L157.50 10M162.50 91L162.50 10M166.50 91L166.50 10M185.50 91L185.50 10M188.50 91L188.50 10M205.50 91L205.50 10M213.50 91L213.50 10M227.50 91L227.50 10M233.50 91L233.50 10M250.50 91L250.50 10M254.50 91L254.50 10M266.50 91L266.50 10M268.50 91L268.50 10"/>
<path d="M11.49 98.26Q11.49 97.95 11.59 97.68Q11.69 97.44 11.82 97.44L12.94 98.33L12.94 95.58Q12.94 95.25 13.03 95.03Q13.13 94.80 13.26 94.80Q13.39 94.80 13.49 95.05Q13.59 95.27 13.59 95.58L13.59 98.33L14.61 97.53L14.61 97.53Q14.65 97.48 14.71 97.48Q14.84 97.48 14.93 97.72Q15.04 97.95 15.04 98.26Q15.04 98.81 14.80 99.00L13.92 99.72L14.50 102.08Q14.54 102.27 14.54 102.48Q14.54 102.81 14.44 103.03Q14.35 103.26 14.21 103.26Q14.07 103.26 13.98 103.07L13.35 100.46L12.54 103.07Q12.45 103.26 12.31 103.26Q12.17 103.26 12.08 103.03Q11.98 102.79 11.98 102.48Q11.98 102.25 12.05 102.01L12.73 99.80L11.72 99.00Q11.49 98.80 11.49 98.26Z" fill="#000000"/>
<path d="M23.32 106Q23.22 105.77 23.22 105.43L23.22 93.36Q23.22 93.03 23.32 92.81Q23.42 92.58 23.55 92.58Q23.68 92.58 23.77 92.82Q23.87 93.05 23.87 93.36L23.87 100.03L23.95 100.03L25.30 96.94L25.31 96.94Q25.40 96.70 25.52 96.70Q25.65 96.70 25.75 96.94Q25.85 97.18 25.85 97.49Q25.85 97.84 25.75 98.07L24.52 100.91L25.99 104.89Q26.07 105.13 26.07 105.43Q26.07 105.74 25.97 105.98Q25.88 106.23 25.75 106.23Q25.60 106.23 25.52 106L23.95 101.76L23.87 101.76L23.87 105.44Q23.87 105.76 23.77 106Q23.68 106.23 23.55 106.23Q23.42 106.23 23.32 106Z" fill="#000000"/>
<path d="M46.04 98.41Q45.95 98.17 45.95 97.86Q45.95 97.55 46.04 97.32Q46.14 97.08 46.27 97.08L47.58 97.08Q47.71 97.08 47.81 97.30Q47.90 97.53 47.90 97.86L47.90 105.44Q47.90 105.77 47.80 106Q47.71 106.23 47.58 106.23Q47.45 106.23 47.34 106Q47.25 105.76 47.25 105.44L47.25 98.64L46.27 98.64Q46.14 98.64 46.04 98.41M47.04 94.72Q46.95 94.49 46.95 94.16L46.95 93.36Q46.95 93.03 47.04 92.81Q47.14 92.58 47.27 92.58L47.60 92.58Q47.73 92.58 47.82 92.81Q47.92 93.03 47.92 93.36L47.92 94.16Q47.92 94.49 47.82 94.72Q47.73 94.94 47.60 94.94L47.27 94.94Q47.14 94.94 47.04 94.72Z" fill="#000000"/>
<path d="M68.22 106Q68.12 105.76 68.12 105.43L68.12 97.49Q68.12 97.16 68.22 96.94Q68.32 96.70 68.45 96.70Q68.62 96.70 68.72 97.06L68.74 97.13L68.77 97.08Q69.01 96.64 69.30 96.64Q69.71 96.64 69.97 97.42L69.99 97.51L70.02 97.42Q70.32 96.64 70.69 96.64Q71.08 96.64 71.34 97.34Q71.60 98.01 71.60 98.93L71.60 105.43Q71.60 105.74 71.50 105.98Q71.40 106.23 71.27 106.23Q71.14 106.23 71.04 106Q70.95 105.76 70.95 105.43L70.95 99.06Q70.93 98.21 70.69 98.21Q70.47 98.21 70.32 99.02Q70.17 99.82 70.17 100.50L70.17 105.43Q70.17 105.74 70.08 105.98Q69.98 106.23 69.86 106.23Q69.74 106.23 69.64 106Q69.55 105.76 69.55 105.43L69.55 99.06Q69.53 98.21 69.30 98.21Q69.07 98.21 68.92 99.04Q68.78 99.84 68.78 100.50L68.78 105.43Q68.78 105.74 68.67 105.98Q68.58 106.23 68.45 106.23Q68.32 106.23 68.22 106Z" fill="#000000"/>
<path d="M90.97 103.76Q90.89 103.10 90.89 101.80L90.89 97.49Q90.89 97.18 90.99 96.94Q91.09 96.70 91.21 96.70Q91.34 96.70 91.44 96.94Q91.54 97.18 91.54 97.49L91.54 101.56Q91.54 103.15 91.70 103.90Q91.85 104.68 92.33 104.72L92.37 104.72Q92.80 104.72 93.08 103.95Q93.36 103.21 93.51 102.11L93.51 102.11L93.51 97.49Q93.51 97.16 93.61 96.94Q93.71 96.70 93.84 96.70Q93.97 96.70 94.06 96.94Q94.16 97.18 94.16 97.49L94.16 105.43Q94.16 105.74 94.06 105.98Q93.97 106.23 93.84 106.23Q93.71 106.23 93.61 106Q93.51 105.77 93.51 105.44L93.51 105.13L93.45 105.25Q92.98 106.28 92.35 106.28L92.32 106.28Q91.80 106.26 91.45 105.58Q91.10 104.92 90.97 103.76Z" fill="#000000"/>
<path d="M114.21 105.98Q114.12 105.74 114.12 105.43L114.12 97.49Q114.12 97.18 114.21 96.96Q114.31 96.71 114.44 96.71Q114.58 96.71 114.67 96.94Q114.77 97.15 114.77 97.48L114.77 97.67L114.83 97.55Q115.22 96.64 115.80 96.64Q116.23 96.64 116.51 97.32Q116.80 97.98 116.81 98.95Q116.81 99.28 116.71 99.52Q116.61 99.75 116.48 99.75Q116.35 99.75 116.26 99.52Q116.16 99.30 116.16 98.99Q116.16 98.40 115.90 98.26L115.90 98.26Q115.88 98.26 115.85 98.24Q115.82 98.21 115.79 98.21Q115.77 98.21 115.72 98.24Q115.67 98.26 115.65 98.26L115.64 98.26Q115.25 98.41 115.01 99.39Q114.77 100.34 114.77 101.45L114.77 105.43Q114.77 105.76 114.67 106Q114.57 106.23 114.44 106.23Q114.31 106.23 114.21 105.98Z" fill="#000000"/>
<path d="M138.16 101.71Q136.88 101.71 136.88 103.38Q136.88 103.95 137.09 104.32Q137.28 104.68 137.49 104.72L137.54 104.72Q138.17 104.72 138.67 102.60L138.68 102.58L138.68 101.75L138.64 101.75Q138.33 101.71 138.16 101.71M136.60 105.39Q136.23 104.58 136.23 103.38Q136.23 102.65 136.32 102.11Q136.41 101.57 136.59 101.24Q136.78 100.91 136.99 100.71Q137.20 100.48 137.49 100.38Q137.79 100.27 138.04 100.24Q138.28 100.20 138.64 100.20L138.69 100.20L138.68 100.10Q138.64 99.00 138.46 98.57Q138.27 98.12 137.86 98.12Q137.42 98.12 137.09 98.80Q137.00 98.95 136.89 98.95Q136.75 98.95 136.65 98.73Q136.56 98.50 136.56 98.17Q136.56 97.79 136.68 97.56Q137.26 96.56 137.86 96.56Q138.51 96.56 138.90 97.42Q139.33 98.43 139.33 99.96L139.33 105.43Q139.33 105.74 139.23 105.98Q139.14 106.23 139.01 106.23Q138.88 106.23 138.77 106Q138.68 105.77 138.68 105.44L138.68 105.11L138.62 105.24Q138.13 106.30 137.56 106.30Q137.54 106.30 137.50 106.30Q137.46 106.28 137.44 106.28Q136.98 106.19 136.60 105.39Z" fill="#000000"/>
<path d="M170.32 98.24Q170.23 98.00 170.23 97.68Q170.23 97.35 170.32 97.13Q170.42 96.89 170.55 96.89L171.15 96.89L171.16 95.01Q171.16 94.66 171.24 94.46Q171.34 94.23 171.47 94.23Q171.60 94.23 171.68 94.47Q171.77 94.70 171.77 95.01L171.76 96.89L172.84 96.89Q172.97 96.89 173.06 97.13Q173.17 97.37 173.17 97.68Q173.17 98.00 173.06 98.24Q172.97 98.48 172.84 98.48L171.75 98.48L171.73 102.60Q171.73 103.05 171.73 103.27Q171.73 103.48 171.76 103.81Q171.78 104.14 171.83 104.30Q171.88 104.44 171.97 104.56Q172.07 104.66 172.22 104.66L172.23 104.66Q172.35 104.66 172.55 104.49Q172.75 104.32 172.84 104.32Q172.97 104.32 173.06 104.56Q173.17 104.78 173.17 105.10Q173.17 105.65 172.91 105.93Q172.65 106.23 172.27 106.23Q171.97 106.23 171.74 106.02Q171.40 105.69 171.26 104.89Q171.11 104.07 171.11 102.75L171.11 102.55L171.13 98.47L170.55 98.47Q170.42 98.47 170.32 98.24Z" fill="#000000"/>
<path d="M194.83 101.71Q193.55 101.71 193.55 103.38Q193.55 103.95 193.76 104.32Q193.95 104.68 194.16 104.72L194.21 104.72Q194.84 104.72 195.34 102.60L195.35 102.58L195.35 101.75L195.31 101.75Q195.00 101.71 194.83 101.71M193.27 105.39Q192.90 104.58 192.90 103.38Q192.90 102.65 192.99 102.11Q193.08 101.57 193.26 101.24Q193.45 100.91 193.66 100.71Q193.87 100.48 194.16 100.38Q194.46 100.27 194.71 100.24Q194.95 100.20 195.31 100.20L195.36 100.20L195.35 100.10Q195.31 99.00 195.12 98.57Q194.94 98.12 194.52 98.12Q194.09 98.12 193.76 98.80Q193.67 98.95 193.55 98.95Q193.42 98.95 193.32 98.73Q193.23 98.50 193.23 98.17Q193.23 97.79 193.35 97.56Q193.92 96.56 194.52 96.56Q195.18 96.56 195.57 97.42Q196.00 98.43 196.00 99.96L196.00 105.43Q196.00 105.74 195.90 105.98Q195.80 106.23 195.67 106.23Q195.54 106.23 195.44 106Q195.35 105.77 195.35 105.44L195.35 105.11L195.29 105.24Q194.80 106.30 194.23 106.30Q194.21 106.30 194.17 106.30Q194.13 106.28 194.10 106.28Q193.65 106.19 193.27 105.39Z" fill="#000000"/>
<path d="M216.22 105.98Q216.12 105.74 216.12 105.43L216.12 97.49Q216.12 97.18 216.22 96.96Q216.32 96.71 216.45 96.71Q216.58 96.71 216.68 96.94Q216.77 97.15 216.77 97.48L216.77 97.67L216.83 97.55Q217.23 96.64 217.80 96.64Q218.23 96.64 218.52 97.32Q218.80 97.98 218.81 98.95Q218.81 99.28 218.71 99.52Q218.62 99.75 218.49 99.75Q218.36 99.75 218.26 99.52Q218.17 99.30 218.16 98.99Q218.16 98.40 217.91 98.26L217.90 98.26Q217.89 98.26 217.86 98.24Q217.82 98.21 217.79 98.21Q217.77 98.21 217.72 98.24Q217.68 98.26 217.65 98.26L217.65 98.26Q217.25 98.41 217.02 99.39Q216.77 100.34 216.77 101.45L216.77 105.43Q216.77 105.76 216.67 106Q216.58 106.23 216.45 106.23Q216.32 106.23 216.22 105.98Z" fill="#000000"/>
<path d="M238.60 104.92Q238.13 103.55 238.13 101.43Q238.13 99.30 238.60 97.93Q239.06 96.56 239.87 96.56Q240.65 96.56 241.12 97.93Q241.60 99.32 241.60 101.43Q241.60 103.53 241.12 104.91Q240.65 106.28 239.87 106.28Q239.07 106.28 238.60 104.92M239.06 99.06Q238.78 99.99 238.78 101.43Q238.78 102.88 239.06 103.80Q239.34 104.72 239.87 104.72Q240.39 104.72 240.67 103.80Q240.95 102.88 240.95 101.43Q240.95 99.99 240.67 99.06Q240.39 98.12 239.87 98.12Q239.35 98.12 239.06 99.06Z" fill="#000000"/>
<path d="M260.83 98.26Q260.83 97.95 260.94 97.68Q261.04 97.44 261.16 97.44L262.28 98.33L262.28 95.58Q262.28 95.25 262.37 95.03Q262.48 94.80 262.61 94.80Q262.74 94.80 262.83 95.05Q262.93 95.27 262.93 95.58L262.93 98.33L263.95 97.53L263.95 97.53Q263.99 97.48 264.05 97.48Q264.18 97.48 264.28 97.72Q264.38 97.95 264.38 98.26Q264.38 98.81 264.15 99.00L263.26 99.72L263.84 102.08Q263.88 102.27 263.88 102.48Q263.88 102.81 263.79 103.03Q263.69 103.26 263.55 103.26Q263.41 103.26 263.32 103.07L262.69 100.46L261.88 103.07Q261.80 103.26 261.65 103.26Q261.51 103.26 261.42 103.03Q261.33 102.79 261.33 102.48Q261.33 102.25 261.39 102.01L262.07 99.80L261.06 99.00Q260.83 98.80 260.83 98.26Z" fill="#000000"/>
</svg>